<mxfile host="app.diagrams.net" modified="2024-04-11T12:12:57.168Z" agent="Mozilla/5.0 (Windows NT 10.0; Win64; x64; rv:124.0) Gecko/20100101 Firefox/124.0" version="24.2.1" etag="IsS0ML1Tsg7Mw2eTr9r9" type="github">
  <diagram name="Page-1" id="9mBWP9xUOW9lovLLI-tw">
    <mxGraphModel>
      <root>
        <mxCell id="0" />
        <mxCell id="1" parent="0" />
      </root>
    </mxGraphModel>
  </diagram>
</mxfile>
